PathFileType	4	(X/Y/Z)	./resultDataOpenSim/trcMotMarkerGrf/sub06/qtm-14-08.trc
DataRate	CameraRate	NumFrames	NumMarkers	Units	OrigDataRate	OrigDataStartFrame	OrigNumFrames
250.000000	250.000000	13	24	m	250.000000	66	527
Frame#	Time	L.Toe.Tip			R.Toe.Tip			L.Ankle.Lat			R.Ankle.Lat			L.Ankle.Med			R.Ankle.Med			L.Heel			R.Heel			L.Knee.Lat			R.Knee.Lat			L.Knee.Med			R.Knee.Med			L.Thigh.Upper			R.Thigh.Upper			L.ASIS			R.ASIS			V.Sacral			L.Acromium			R.Acromium			C7			L.Elbow			R.Elbow			L.Wrist.Lat			R.Wrist.Lat
		X1	Y1	Z1	X2	Y2	Z2	X3	Y3	Z3	X4	Y4	Z4	X5	Y5	Z5	X6	Y6	Z6	X7	Y7	Z7	X8	Y8	Z8	X9	Y9	Z9	X10	Y10	Z10	X11	Y11	Z11	X12	Y12	Z12	X13	Y13	Z13	X14	Y14	Z14	X15	Y15	Z15	X16	Y16	Z16	X17	Y17	Z17	X18	Y18	Z18	X19	Y19	Z19	X20	Y20	Z20	X21	Y21	Z21	X22	Y22	Z22	X23	Y23	Z23	X24	Y24	Z24

66	0.26	-1.4444881	0.069881546	-0.083479716	-0.78015267	0.035968511	0.085198181	-1.4340742	0.20108497	-0.11055721	-0.91420448	0.061772901	0.10465767	-1.4166863	0.2002076	-0.028219317	-0.89695739	0.080467531	0.018290024	-1.4758708	0.25879014	-0.058758572	-0.97020801	0.03781028	0.042016398	-1.0973151	0.38115863	-0.13420251	-0.87038015	0.44581991	0.1328227	-1.0900564	0.36765997	-0.016742432	-0.90855051	0.43171457	0.0096494435	-1.0617802	0.77215001	-0.14610477	-1.0164953	0.7920271	0.19249905	-0.9767895	0.82118009	-0.1140494	-0.93686314	0.84171379	0.12512817	-1.1374614	0.914159	0.033497831	-0.99725083	1.3201694	-0.15183952	-1.0095844	1.291763	0.20911128	-1.0767685	1.350026	0.02854426	-1.022972	0.99838395	-0.22429607	-1.1431853	1.0064369	0.24756867	-0.83527434	0.84041666	-0.17918318	-1.0840748	0.78121525	0.30640981
67	0.264	-1.4322903	0.072752077	-0.083025173	-0.78019456	0.035918228	0.085264033	-1.4227542	0.20382121	-0.11005737	-0.91427147	0.061664122	0.104668	-1.405064	0.20304323	-0.027770431	-0.89683563	0.080534556	0.018409281	-1.4645965	0.26137488	-0.058101959	-0.97025658	0.037894833	0.042100493	-1.0850511	0.38171532	-0.13496429	-0.86835039	0.44539097	0.13328575	-1.07778	0.36860905	-0.017100848	-0.90632812	0.43193716	0.010444881	-1.0549356	0.77354327	-0.14562307	-1.0106554	0.79335581	0.19291691	-0.97038901	0.82282187	-0.11338127	-0.93077123	0.84271834	0.12586309	-1.1313586	0.91584972	0.034243592	-0.99173075	1.321664	-0.15161729	-1.0029464	1.2932083	0.20942972	-1.0706313	1.3515848	0.029192383	-1.0188186	1.0001162	-0.22443043	-1.1351433	1.0071115	0.24895447	-0.83227992	0.84035497	-0.17980457	-1.0729054	0.78231596	0.3070879
68	0.268	-1.419504	0.07539408	-0.082541069	-0.78025795	0.035877146	0.085340689	-1.4111266	0.20634614	-0.10952895	-0.91436806	0.061560465	0.10470563	-1.3922897	0.20597907	-0.027656949	-0.8967676	0.080610659	0.018543861	-1.4530889	0.26376684	-0.057622945	-0.97031515	0.037987374	0.042204611	-1.0727241	0.38243165	-0.13570114	-0.86631517	0.44497438	0.13372328	-1.0655048	0.36969085	-0.017419996	-0.90414169	0.43217963	0.011145028	-1.0480716	0.77495172	-0.14512808	-1.0043453	0.79479224	0.19350402	-0.96396356	0.82445258	-0.11261322	-0.92473929	0.84375785	0.12661938	-1.125178	0.91738451	0.034717856	-0.9862565	1.323193	-0.15140693	-0.99638332	1.2947011	0.20972858	-1.0645328	1.3531505	0.02981519	-1.0143682	1.0018639	-0.22401328	-1.1269849	1.0078261	0.25044122	-0.8291909	0.8403379	-0.18038375	-1.0617849	0.78348894	0.30775766
69	0.272	-1.4062006	0.077784253	-0.081983147	-0.78033921	0.035844667	0.085436202	-1.3991934	0.20864374	-0.10899045	-0.91449097	0.061473657	0.10477409	-1.3787694	0.20887962	-0.027729429	-0.89674189	0.080700825	0.018699543	-1.4413837	0.265925	-0.057251874	-0.97037661	0.038080948	0.042326546	-1.0603138	0.38331937	-0.13642538	-0.86424025	0.44462594	0.13421996	-1.0532062	0.37086441	-0.017719159	-0.90197485	0.43243915	0.011718082	-1.0411894	0.77636888	-0.14467452	-0.99776569	0.79624766	0.19423017	-0.9575108	0.82606246	-0.11175572	-0.9188229	0.84483291	0.12739853	-1.1191476	0.91881459	0.035329967	-0.98083398	1.3247554	-0.15119418	-0.98989636	1.296238	0.21001368	-1.0584719	1.3547288	0.030403003	-1.0097649	1.0036067	-0.22321903	-1.1187891	1.0085415	0.2519153	-0.82595373	0.84036955	-0.18090289	-1.0507466	0.78472611	0.30845034
70	0.276	-1.3924357	0.07990503	-0.081318184	-0.78043132	0.035818772	0.085554309	-1.3869679	0.21071195	-0.10846208	-0.91463204	0.061403866	0.1048771	-1.3653005	0.21152267	-0.027677362	-0.89673958	0.080808595	0.018882832	-1.4295396	0.26781608	-0.056905591	-0.97043494	0.038175068	0.042459591	-1.0478252	0.38436998	-0.13713137	-0.86226861	0.44436404	0.13479931	-1.040835	0.37212726	-0.018021614	-0.89988761	0.43271342	0.012233009	-1.0343262	0.77781014	-0.14435104	-0.99123311	0.79763176	0.19501608	-0.95107323	0.82766704	-0.11092668	-0.91302043	0.84595162	0.12821669	-1.1133832	0.9202039	0.036224291	-0.97545873	1.3263442	-0.15097077	-0.98348476	1.2978128	0.21029118	-1.0524483	1.3563195	0.030950477	-1.0052681	1.0053535	-0.22237053	-1.1105933	1.0092597	0.25334576	-0.82263366	0.84045615	-0.18138092	-1.0398563	0.78599469	0.30917669
71	0.28	-1.3782983	0.081755369	-0.080577588	-0.78052589	0.035797316	0.085692597	-1.3744959	0.21253539	-0.10793495	-0.9147786	0.061346297	0.10501468	-1.3521083	0.21381936	-0.027393282	-0.89673942	0.080937175	0.019096471	-1.4175853	0.26940299	-0.056481033	-0.97048598	0.03827052	0.042594425	-1.0353164	0.38554741	-0.13778905	-0.8604908	0.444178	0.13543214	-1.0283781	0.37348712	-0.018337704	-0.8979298	0.43299363	0.012762215	-1.0275247	0.77930434	-0.14423378	-0.98484206	0.79892273	0.19583183	-0.94470598	0.82928623	-0.11026243	-0.90730677	0.84710852	0.1290816	-1.1077042	0.92161284	0.037188844	-0.97011912	1.327952	-0.15073416	-0.97715012	1.2994214	0.2105664	-1.0464625	1.3579149	0.031454595	-1.0010131	1.0071026	-0.22164852	-1.1024024	1.009993	0.25474664	-0.81937618	0.84060109	-0.18186794	-1.0290666	0.78729055	0.30992524
72	0.284	-1.363906	0.083353023	-0.079845825	-0.78061717	0.035779419	0.085843845	-1.3618358	0.21409923	-0.10736686	-0.91491815	0.061300166	0.10518192	-1.3390005	0.21580662	-0.026966227	-0.89672472	0.081087756	0.019332251	-1.4055124	0.27064201	-0.055900754	-0.97052794	0.038364542	0.042723481	-1.0228656	0.38681458	-0.13837344	-0.85888475	0.444045	0.13607307	-1.0158817	0.37494439	-0.018656205	-0.89606909	0.43326581	0.013289019	-1.0207866	0.78087361	-0.14429373	-0.97852438	0.80016742	0.19669355	-0.93842925	0.8309188	-0.10978474	-0.90165295	0.84828598	0.12998695	-1.1018519	0.92308488	0.037905809	-0.96480466	1.3295751	-0.15048335	-0.97088772	1.3010619	0.21084094	-1.0405143	1.3595052	0.031915543	-0.99689387	1.0088455	-0.2210161	-1.0941902	1.0107445	0.25615213	-0.81632089	0.84080041	-0.18241855	-1.0182085	0.78866236	0.3106684
73	0.288	-1.3493272	0.084722859	-0.079182775	-0.78070317	0.035766286	0.085998474	-1.3490055	0.21542113	-0.10673604	-0.91503986	0.061271365	0.10536922	-1.3259002	0.2175331	-0.026483125	-0.89669353	0.081256658	0.019570548	-1.3932942	0.27151174	-0.055192211	-0.97056171	0.038454981	0.042842791	-1.0105114	0.3881637	-0.13888796	-0.85741585	0.44395328	0.13669964	-1.003479	0.37649895	-0.018905401	-0.89425452	0.43352328	0.013766063	-1.0140698	0.78252398	-0.14435274	-0.97241184	0.80141796	0.1975666	-0.9322429	0.8325422	-0.10941237	-0.89604386	0.84947166	0.13092416	-1.0957953	0.92462132	0.038279164	-0.9595087	1.3312104	-0.15021959	-0.96468024	1.3027315	0.21111113	-1.0345987	1.36108	0.032341014	-0.99270691	1.0105926	-0.22035102	-1.0858917	1.0115095	0.25762072	-0.81353083	0.84104911	-0.18305823	-1.0071192	0.79016633	0.31137986
74	0.292	-1.3345587	0.085882648	-0.078589934	-0.78078492	0.035760832	0.086148771	-1.3359994	0.21652208	-0.10607893	-0.91513657	0.061267188	0.10556387	-1.312781	0.21902888	-0.025976529	-0.89666204	0.081436513	0.019793324	-1.3809277	0.27206743	-0.054498723	-0.97059045	0.038544642	0.042950651	-0.99821695	0.38960691	-0.13934624	-0.8561076	0.44390909	0.13733193	-0.99133223	0.37816383	-0.018959776	-0.89247362	0.43376861	0.01419501	-1.0073253	0.78424419	-0.14415487	-0.96695084	0.80265678	0.19832428	-0.92615676	0.83413278	-0.10906502	-0.89048316	0.85066643	0.13188842	-1.0896896	0.9261892	0.038434618	-0.9542274	1.3328553	-0.14994807	-0.95851135	1.3044283	0.21137374	-1.0287068	1.3626318	0.0327453	-0.9883247	1.0123657	-0.21957707	-1.0774329	1.0122899	0.25922251	-0.81096299	0.84134838	-0.18376911	-0.99577486	0.79181835	0.31205203
75	0.296	-1.3195868	0.086835477	-0.078047486	-0.7808658	0.035765315	0.086293266	-1.3228328	0.21739085	-0.10545702	-0.91521383	0.061288649	0.10575597	-1.2995493	0.22030517	-0.025463796	-0.89665272	0.081619848	0.019999863	-1.36845	0.27241945	-0.053950049	-0.97061822	0.038639466	0.043047195	-0.98590696	0.39115706	-0.1397512	-0.85497792	0.44390838	0.13799146	-0.97944711	0.37995273	-0.018768494	-0.89071385	0.43400767	0.014609891	-1.0005311	0.78600758	-0.14356232	-0.96251236	0.80377355	0.19884765	-0.92014864	0.83568946	-0.10869968	-0.88497236	0.85187827	0.13287639	-1.0836466	0.92774759	0.038510559	-0.94895861	1.3345091	-0.14967052	-0.95236977	1.3061475	0.21163053	-1.0228291	1.3641611	0.033140912	-0.98376603	1.0141755	-0.21870567	-1.0687965	1.0131073	0.26099942	-0.80850757	0.84170015	-0.18451244	-0.98426666	0.79360007	0.31269329
76	0.3	-1.30442	0.087574883	-0.077544391	-0.78095042	0.035778978	0.086435191	-1.3095367	0.21801414	-0.10488592	-0.91529174	0.061327857	0.1059445	-1.2861788	0.22134962	-0.02496232	-0.89667737	0.081801333	0.020207704	-1.3558797	0.27260624	-0.053531171	-0.97064878	0.03874323	0.043135887	-0.9735796	0.39282772	-0.14009838	-0.85396796	0.44392599	0.13864723	-0.96758586	0.38183279	-0.018470888	-0.88894808	0.43424994	0.01503043	-0.99370006	0.78778753	-0.14274366	-0.95899994	0.80468205	0.19912723	-0.91410988	0.8372396	-0.10827786	-0.87946801	0.85311443	0.13388824	-1.0776725	0.9292589	0.03856092	-0.94369425	1.336168	-0.14938191	-0.94623793	1.3078768	0.21188352	-1.0169594	1.3656728	0.033531621	-0.97923514	1.0160239	-0.21785504	-1.060054	1.0139886	0.26292437	-0.806062	0.84209739	-0.18526231	-0.97268291	0.79548395	0.31331166
77	0.304	-1.2890763	0.08809959	-0.077079231	-0.78104276	0.035798275	0.086575815	-1.2961255	0.2183946	-0.10433117	-0.91539076	0.061373817	0.10613439	-1.2726803	0.2221453	-0.024487143	-0.89672972	0.081980433	0.020437744	-1.3431755	0.27255326	-0.053142315	-0.97068616	0.038854283	0.043222986	-0.96131614	0.39462379	-0.14038305	-0.85302614	0.44395465	0.13926283	-0.95548681	0.38373373	-0.018275974	-0.88720055	0.43449951	0.015449724	-0.98684773	0.78957492	-0.14206653	-0.95585972	0.80549597	0.19924872	-0.90791596	0.83881833	-0.10776076	-0.87384257	0.85438054	0.13493624	-1.0717402	0.93070153	0.03858796	-0.93841771	1.3378225	-0.14907919	-0.94010027	1.3096041	0.21213076	-1.0110978	1.3671658	0.033915482	-0.97498189	1.0179114	-0.2171684	-1.0513488	1.0149297	0.26486999	-0.80357469	0.84252733	-0.1860174	-0.9610614	0.79744773	0.31390764
78	0.308	-1.273562	0.088423056	-0.07666464	-0.78114389	0.035818777	0.08671214	-1.2825817	0.21853377	-0.10377881	-0.91551975	0.061420843	0.10632608	-1.2590217	0.22268396	-0.024042912	-0.89679287	0.082162862	0.020697727	-1.3302968	0.27218614	-0.0527044	-0.97073402	0.038968113	0.043314345	-0.94915413	0.39652915	-0.14060578	-0.85213671	0.44400931	0.13983988	-0.94311324	0.38562772	-0.018243019	-0.88556861	0.43473976	0.015841254	-0.9799527	0.79136998	-0.14178173	-0.95245846	0.80646866	0.19934056	-0.90155685	0.84044378	-0.10713772	-0.86792743	0.85567866	0.13604533	-1.0658371	0.9320793	0.038591991	-0.93311815	1.3394658	-0.14876525	-0.93395497	1.3113246	0.21236851	-1.0052507	1.3686316	0.034292941	-0.97104269	1.0198281	-0.21666018	-1.0428224	1.0158935	0.26666903	-0.80104673	0.84298393	-0.18679162	-0.94941143	0.79948117	0.31447955
